<?xml version="1.0" encoding="utf-8"?>
<!-- Generator: Adobe Illustrator 17.0.0, SVG Export Plug-In . SVG Version: 6.00 Build 0)  -->
<!DOCTYPE svg PUBLIC "-//W3C//DTD SVG 1.1//EN" "http://www.w3.org/Graphics/SVG/1.1/DTD/svg11.dtd">
<svg version="1.1" id="Livello_1" xmlns="http://www.w3.org/2000/svg" xmlns:xlink="http://www.w3.org/1999/xlink" x="0px" y="0px"
	 width="557.5px" height="287px" viewBox="0 0 557.5 287" enable-background="new 0 0 557.5 287" xml:space="preserve">
<g id="logo_x5F_CPT_3_" display="none">
	
		<image display="inline" overflow="visible" width="3960" height="2001" id="logo_x5F_CPT_4_" xlink:href="A7FE6D517850FE8.jpg"  transform="matrix(0.1317 0 0 0.1317 14.4996 11.4995)">
	</image>
</g>
<g>
	<text transform="matrix(1 0 0 1 154.5814 234.8133)" fill="#928580" font-family="'BookmanOldStyle'" font-size="203">P</text>
	<g>
		<rect x="12.248" y="87.1" fill="none" width="157.855" height="172.991"/>
		<text transform="matrix(1 0 0 1 12.2479 232.4457)" fill="#928580" font-family="'BookmanOldStyle'" font-size="203">C</text>
		<text transform="matrix(1 0 0 1 283.7469 234.8128)" fill="#928580" font-family="'BookmanOldStyle'" font-size="203">T</text>
		<rect x="118.747" y="57.499" fill="none" width="328" height="46"/>
		
			<text transform="matrix(1 0 0 1 118.7469 82.5591)" fill="#928580" font-family="'BookmanOldStyle'" font-size="35" letter-spacing="7">SISTEMA</text>
		<rect x="12.5" y="243" fill="none" width="545" height="75"/>
		<text transform="matrix(1 0 0 1 12.4996 274.5039)"><tspan x="0" y="0" fill="#928580" font-family="'BookmanOldStyle'" font-size="44">C</tspan><tspan x="32.549" y="0" fill="#928580" font-family="'BookmanOldStyle'" font-size="31">ONTI </tspan><tspan x="119.948" y="0" fill="#928580" font-family="'BookmanOldStyle'" font-size="44">P</tspan><tspan x="147.233" y="0" fill="#928580" font-family="'BookmanOldStyle'" font-size="31">UBBLICI</tspan><tspan x="279.876" y="0" fill="#928580" font-family="'BookmanOldStyle'" font-size="36"> </tspan><tspan x="291.39" y="0" fill="#928580" font-family="'BookmanOldStyle'" font-size="44">T</tspan><tspan x="318.675" y="0" fill="#928580" font-family="'BookmanOldStyle'" font-size="31">ERRITORIALI</tspan></text>
	</g>
</g>
<g>
	<path fill="#7E95C8" d="M468.021,192.141l-26.603-10.28l13.876-27.159c1.986-3.887-0.192-8.974-4.864-11.361
		c-4.672-2.387-10.07-1.171-12.056,2.716l-17.862,34.961c-0.511,0.736-0.953,1.555-1.297,2.448
		c-0.035,0.092-0.061,0.184-0.094,0.276l-0.052,0.102c-0.707,1.383-0.877,2.918-0.605,4.43c0.212,3.12,1.818,5.79,4.452,6.808
		l38.256,14.783c3.936,1.521,8.659-1.214,10.55-6.108C473.614,198.862,471.957,193.662,468.021,192.141z"/>
	<path fill="#7E95C8" d="M506.076,141.662l-16.581,2.502l-0.749-17.848c-0.662-2.817-2.691-4.509-5.771-4.366
		c-3.08,0.144-5.49,2.331-5.383,4.886l0.965,22.975c-0.049,0.523-0.038,1.068,0.044,1.622c0.008,0.057,0.022,0.111,0.032,0.168
		l0.003,0.067c0.038,0.909,0.394,1.74,0.971,2.429c1.01,1.526,3.336,2.458,4.979,2.21l23.11-3.64
		c2.453-0.37,4.079-3.134,3.633-6.173C510.879,143.456,508.529,141.292,506.076,141.662z"/>
	<path fill="#7E95C8" d="M517.299,99.642l-11.848,9.826l-9.049-13.676c-1.856-1.9-4.253-2.269-6.606-0.696
		c-2.353,1.573-3.211,4.435-1.916,6.392l11.648,17.604c0.21,0.434,0.476,0.857,0.803,1.255c0.034,0.041,0.07,0.077,0.104,0.117
		l0.034,0.051c0.461,0.697,1.135,1.18,1.914,1.449c1.517,0.721,3.788,0.351,4.961-0.622l16.442-13.815
		c1.753-1.454,1.721-4.397-0.07-6.575C521.925,98.775,519.051,98.189,517.299,99.642z"/>
	<path fill="#7E95C8" d="M506.341,59.834l-5.429,14.404l-14.633-7.401c-2.553-0.732-4.818,0.134-6.084,2.666
		c-1.266,2.532-0.594,5.443,1.5,6.502l18.836,9.527c0.397,0.274,0.838,0.509,1.319,0.692c0.049,0.019,0.099,0.032,0.148,0.05
		l0.055,0.028c0.745,0.377,1.57,0.464,2.381,0.311c1.675-0.125,3.465-1.571,4.002-2.997l7.445-20.144
		c0.803-2.131-0.682-4.673-3.316-5.677C509.931,56.791,507.144,57.704,506.341,59.834z"/>
	<path fill="#7E95C8" d="M476.44,30.27l2.126,15.245l-16.39,0.503c-2.592,0.579-4.167,2.424-4.067,5.252
		c0.1,2.829,2.083,5.063,4.429,4.991l21.099-0.648c0.48,0.05,0.98,0.046,1.489-0.023c0.052-0.007,0.102-0.019,0.154-0.027
		l0.061-0.002c0.835-0.026,1.601-0.344,2.24-0.866c1.411-0.911,2.291-3.037,2.08-4.547l-3.102-21.25
		c-0.314-2.255-2.835-3.777-5.629-3.398C478.136,25.88,476.126,28.015,476.44,30.27z"/>
	<path fill="#7E95C8" d="M435.639,19.546l9.621,12.016l-13.829,8.812c-1.932,1.823-2.342,4.213-0.81,6.593
		c1.532,2.38,4.379,3.287,6.358,2.026l17.802-11.344c0.438-0.202,0.865-0.461,1.268-0.781c0.041-0.033,0.078-0.069,0.118-0.102
		l0.052-0.033c0.704-0.449,1.2-1.114,1.482-1.889c0.747-1.504,0.416-3.781-0.537-4.971l-13.53-16.677
		c-1.423-1.778-4.367-1.797-6.575-0.043C434.852,14.905,434.216,17.768,435.639,19.546z"/>
	<path fill="#7E95C8" d="M394.702,30.466l14.337,5.602l-7.577,14.543c-0.763,2.544,0.076,4.82,2.592,6.116
		c2.516,1.296,5.435,0.66,6.52-1.422l9.753-18.721c0.278-0.394,0.519-0.832,0.708-1.31c0.019-0.049,0.033-0.099,0.052-0.148
		l0.028-0.054c0.386-0.741,0.483-1.565,0.34-2.377c-0.105-1.676-1.529-3.483-2.949-4.038l-20.053-7.687
		c-2.121-0.829-4.681,0.625-5.717,3.248C391.702,26.839,392.581,29.637,394.702,30.466z"/>
	<path fill="#7E95C8" d="M365.015,60.718l15.214-2.336l0.73,16.382c0.614,2.584,2.481,4.133,5.308,3.994
		c2.827-0.139,5.034-2.153,4.93-4.497l-0.94-21.088c0.044-0.48,0.032-0.98-0.044-1.489c-0.008-0.052-0.02-0.102-0.029-0.154
		l-0.003-0.061c-0.037-0.834-0.366-1.596-0.897-2.228c-0.931-1.398-3.068-2.248-4.575-2.017l-21.205,3.396
		c-2.251,0.346-3.737,2.886-3.32,5.675C360.601,59.083,362.764,61.064,365.015,60.718z"/>
</g>
</svg>
