<svg id="Livello_1" data-name="Livello 1" xmlns="http://www.w3.org/2000/svg" width="33.01896mm" height="12.75841mm" viewBox="0 0 93.59705 36.16557">
  <defs>
    <style>
      .cls-1 {
        fill: #005cb9;
      }

      .cls-2 {
        fill: #77bc1f;
      }

      .cls-3 {
        fill: #ac8a00;
      }

      .cls-4 {
        fill: #9e873a;
      }

      .cls-5 {
        fill: #fff;
      }
    </style>
  </defs>
  <title>footer_opendata</title>
  <g>
    <g>
      <g>
        <path class="cls-1" d="M50.52314,21.57865a6.36515,6.36515,0,0,1,.22754-1.709A6.45738,6.45738,0,0,1,52.402,17.02592,6.28423,6.28423,0,0,1,53.70087,16.022a6.59259,6.59259,0,0,1,1.53418-.64648,6.418,6.418,0,0,1,3.416,0,6.5763,6.5763,0,0,1,1.53906.64648,6.41338,6.41338,0,0,1,1.30273,1.00391,6.33138,6.33138,0,0,1,1.00391,1.30664,6.67062,6.67062,0,0,1,.64746,1.53711,6.42887,6.42887,0,0,1,0,3.41895,6.49911,6.49911,0,0,1-.64746,1.52832,6.33348,6.33348,0,0,1-1.00391,1.29395,6.62965,6.62965,0,0,1-1.30273,1.00391,6.43423,6.43423,0,0,1-6.48926,0,6.51295,6.51295,0,0,1-2.30371-2.29785,6.29875,6.29875,0,0,1-.64648-1.52832A6.37235,6.37235,0,0,1,50.52314,21.57865Zm3.251-.00781a3.551,3.551,0,0,0,.23535,1.30176,3.2019,3.2019,0,0,0,.6582,1.05371,3.05983,3.05983,0,0,0,1.00293.70605,3.314,3.314,0,0,0,2.55371,0,3.05568,3.05568,0,0,0,1.00684-.70605,3.2019,3.2019,0,0,0,.6582-1.05371,3.707,3.707,0,0,0,0-2.59961,3.24171,3.24171,0,0,0-.6582-1.0625,3.07936,3.07936,0,0,0-1.00684-.71484,3.12516,3.12516,0,0,0-3.55664.71484,3.24171,3.24171,0,0,0-.6582,1.0625A3.55637,3.55637,0,0,0,53.77411,21.57084Z" transform="translate(-6.70147 -9.66722)"/>
        <path class="cls-1" d="M65.2995,17.23588a0.51617,0.51617,0,0,1,.22656-0.11719,1.09564,1.09564,0,0,1,.22656-0.02539h1.26855a0.60326,0.60326,0,0,1,.26465.05078,0.45959,0.45959,0,0,1,.17188.1377,0.92065,0.92065,0,0,1,.11426.20215c0.03027,0.0752.05957,0.1582,0.08789,0.248l0.35254,1.01563q0.23584-.30176.47461-0.61719a3.13977,3.13977,0,0,1,.56738-0.57129,2.87459,2.87459,0,0,1,.78125-0.42383,3.19782,3.19782,0,0,1,1.1084-.168,5.244,5.244,0,0,1,2.12109.42383,5.0591,5.0591,0,0,1,1.67188,1.168,5.39276,5.39276,0,0,1,1.0957,1.74707,6.14762,6.14762,0,0,1,0,4.33887,5.37963,5.37963,0,0,1-1.0957,1.751,5.09824,5.09824,0,0,1-1.67187,1.17188,5.18184,5.18184,0,0,1-2.12109.42871,3.03766,3.03766,0,0,1-.94043-0.12988,2.75922,2.75922,0,0,1-.70215-0.34082,3.21515,3.21515,0,0,1-.541-0.46191q-0.23584-.252-0.46191-0.50391v3.91406a0.63718,0.63718,0,0,1-.15137.42871,0.58817,0.58817,0,0,1-.4707.17676H65.75263a0.66822,0.66822,0,0,1-.21777-0.042,0.81815,0.81815,0,0,1-.21875-0.11816,0.63738,0.63738,0,0,1-.168-0.18848,0.49436,0.49436,0,0,1-.06738-0.25684V17.7144a0.54592,0.54592,0,0,1,.06348-0.27637A0.96133,0.96133,0,0,1,65.2995,17.23588Zm7.8457,5.24219a2.94465,2.94465,0,0,0-.17676-1.02148,2.6323,2.6323,0,0,0-.49512-0.84375,2.3592,2.3592,0,0,0-.76465-0.57129,2.28263,2.28263,0,0,0-.9834-0.21,2.59428,2.59428,0,0,0-1.00293.19727,2.68808,2.68808,0,0,0-.832.53809,2.7153,2.7153,0,0,0-.5791.80176,2.52136,2.52136,0,0,0-.248.9834v0.126a2.58924,2.58924,0,0,0,.21,1.041,2.63448,2.63448,0,0,0,.57129.84473,2.73324,2.73324,0,0,0,.84766.56641,2.57563,2.57563,0,0,0,1.0332.21,2.2685,2.2685,0,0,0,.9834-0.21,2.37356,2.37356,0,0,0,.76465-0.56641,2.56534,2.56534,0,0,0,.49512-0.84473A3.01916,3.01916,0,0,0,73.14521,22.47807Z" transform="translate(-6.70147 -9.66722)"/>
        <path class="cls-1" d="M86.84443,26.5269a5.596,5.596,0,0,1-1.66309,1.0625,5.069,5.069,0,0,1-1.957.38184,5.71494,5.71494,0,0,1-3.97363-1.583,5.58826,5.58826,0,0,1-1.22559-1.752,5.27335,5.27335,0,0,1-.4541-2.19238,5.67618,5.67618,0,0,1,.69336-2.72949,5.448,5.448,0,0,1,.80664-1.11328,5.04062,5.04062,0,0,1,1.0625-.86914,5.23084,5.23084,0,0,1,1.27637-.56348,5.16748,5.16748,0,0,1,1.45313-.20117,4.963,4.963,0,0,1,1.35254.18457,5.278,5.278,0,0,1,1.23047.52051,5.37555,5.37555,0,0,1,1.05469.80664,5.52211,5.52211,0,0,1,.82324,1.0293,4.957,4.957,0,0,1,.5332,1.19238,4.55161,4.55161,0,0,1,.18848,1.30664q0,0.43652-.0127.71387a0.80687,0.80687,0,0,1-.12988.44141,0.63688,0.63688,0,0,1-.39062.22656,3.825,3.825,0,0,1-.80176.0625H80.66278a2.08726,2.08726,0,0,0,.33984.89941,2.14447,2.14447,0,0,0,.5918.5752,2.37568,2.37568,0,0,0,.71387.30664,3.01942,3.01942,0,0,0,.71484.09277,3.208,3.208,0,0,0,.62109-0.06348,4.38044,4.38044,0,0,0,.61719-0.168,3.55354,3.55354,0,0,0,.5459-0.24316,1.83657,1.83657,0,0,0,.39941-0.29,1.70232,1.70232,0,0,1,.23145-0.16406,0.41087,0.41087,0,0,1,.20508-0.05469,0.39694,0.39694,0,0,1,.22266.07617,1.73467,1.73467,0,0,1,.25684.21777l0.88965,1.00781a0.561,0.561,0,0,1,.11816.19824,0.65471,0.65471,0,0,1,.02539.17969,0.46622,0.46622,0,0,1-.09277.29A1.06159,1.06159,0,0,1,86.84443,26.5269Zm-4.04-6.998a1.60145,1.60145,0,0,0-.63379.13086,2.40077,2.40077,0,0,0-.57617.34863,3.00752,3.00752,0,0,0-.48242.49512,2.95845,2.95845,0,0,0-.34863.56348h4.292a4.9193,4.9193,0,0,0-.38184-0.60547,2.62081,2.62081,0,0,0-.4707-0.4873,2.0379,2.0379,0,0,0-.60449-0.32715A2.43521,2.43521,0,0,0,82.80439,19.52885Z" transform="translate(-6.70147 -9.66722)"/>
        <path class="cls-1" d="M90.02021,17.28569a0.52606,0.52606,0,0,1,.23047-0.11816,1.15253,1.15253,0,0,1,.23145-0.02441h1.26855a0.56348,0.56348,0,0,1,.25977.05469,0.55671,0.55671,0,0,1,.18555.14648,0.77556,0.77556,0,0,1,.12109.209c0.03125,0.0791.06055,0.15918,0.08887,0.24316l0.25977,1.07227a4.05057,4.05057,0,0,1,.36621-0.59082,3.106,3.106,0,0,1,.6084-0.61914,3.41287,3.41287,0,0,1,.87793-0.48633,3.26594,3.26594,0,0,1,1.18066-.19629,3.96437,3.96437,0,0,1,3.06934,1.373,4.60139,4.60139,0,0,1,.85254,1.48828,5.37352,5.37352,0,0,1,.30273,1.81738v5.502a0.72712,0.72712,0,0,1-.13867.48242,0.54481,0.54481,0,0,1-.44043.16406H97.404a0.75386,0.75386,0,0,1-.49609-0.12207,0.63481,0.63481,0,0,1-.13379-0.47461V21.73881a1.48929,1.48929,0,0,0-.16406-0.68457,2.0081,2.0081,0,0,0-.43262-0.57129,2.08281,2.08281,0,0,0-.60937-0.39062,1.76528,1.76528,0,0,0-.69238-0.14258,1.56229,1.56229,0,0,0-.61816.13379,2.05558,2.05558,0,0,0-.5791.374,2.18751,2.18751,0,0,0-.44531.5625,1.64631,1.64631,0,0,0-.20605.70117v5.46a0.78266,0.78266,0,0,1-.05469.28613,0.45439,0.45439,0,0,1-.16309.21875,0.76187,0.76187,0,0,1-.20605.0918,0.89529,0.89529,0,0,1-.22266.02539H90.48212a0.5923,0.5923,0,0,1-.68066-0.64648V17.76322a0.61891,0.61891,0,0,1,.07129-0.293,0.53111,0.53111,0,0,1,.19727-0.21Z" transform="translate(-6.70147 -9.66722)"/>
        <path class="cls-2" d="M63.4245,38.12553a6.97388,6.97388,0,0,1-.25488,1.9043,6.79477,6.79477,0,0,1-.72754,1.68262,6.986,6.986,0,0,1-2.585,2.49023,7.31461,7.31461,0,0,1-1.72461.68457,7.56315,7.56315,0,0,1-1.918.24121H51.55536a0.60156,0.60156,0,0,1-.30176-0.0752,0.33937,0.33937,0,0,1-.13281-0.32129V31.52983a0.46874,0.46874,0,0,1,.1084-0.32129,0.41422,0.41422,0,0,1,.32617-0.123h4.65918a7.382,7.382,0,0,1,1.91309.24609,7.26205,7.26205,0,0,1,1.7207.69922,7.39986,7.39986,0,0,1,1.46,1.08691,6.72247,6.72247,0,0,1,1.12891,1.417,7.11822,7.11822,0,0,1,.72754,1.69141A6.8475,6.8475,0,0,1,63.4245,38.12553ZM54.778,34.47807v7.26758H55.572q0.2168,0,.4248-0.01465c0.13867-.00879.27734-0.02051,0.416-0.0332a3.78492,3.78492,0,0,0,1.32324-.34473,3.68278,3.68278,0,0,0,1.07227-.75586,3.40527,3.40527,0,0,0,.71875-1.10059,3.60865,3.60865,0,0,0,.25977-1.37988,3.54165,3.54165,0,0,0-.29785-1.46,3.61916,3.61916,0,0,0-.80762-1.15332,3.65659,3.65659,0,0,0-1.19629-.75586,3.9489,3.9489,0,0,0-1.46-.26953H54.778Z" transform="translate(-6.70147 -9.66722)"/>
        <path class="cls-2" d="M77.85517,44.42924a0.85416,0.85416,0,0,1-.05664.30664,0.47,0.47,0,0,1-.18945.23145,0.4641,0.4641,0,0,1-.24512.13281,1.311,1.311,0,0,1-.24609.02832H75.25653a0.83972,0.83972,0,0,1-.32129-0.05176,0.51,0.51,0,0,1-.19922-0.14648,0.86828,0.86828,0,0,1-.127-0.23145c-0.03516-.0918-0.07129-0.19043-0.1084-0.29785l-0.27441-.709c-0.16992.16992-.35645,0.35156-0.55762,0.54395a5.156,5.156,0,0,1-.666.5332,4.0022,4.0022,0,0,1-.78906.41113,2.48183,2.48183,0,0,1-.90723.166,6.2019,6.2019,0,0,1-1.64941-.21777,6.07515,6.07515,0,0,1-2.7168-1.583A6.16349,6.16349,0,0,1,65.362,40.80522a6.3355,6.3355,0,0,1-.21777-1.668,6.19487,6.19487,0,0,1,1.7959-4.4082,6.12121,6.12121,0,0,1,4.36621-1.791,3.20319,3.20319,0,0,1,1.07715.1748,3.68325,3.68325,0,0,1,.89258.458,4.4003,4.4003,0,0,1,.72754.64258,7.30153,7.30153,0,0,1,.582.72754l0.36816-1.14258c0.0625-.1582.11523-0.28516,0.15625-0.38281a0.68618,0.68618,0,0,1,.13184-0.21777,0.3564,0.3564,0,0,1,.1748-0.09473,1.40854,1.40854,0,0,1,.293-0.02344h1.4082a1.311,1.311,0,0,1,.24609.02832,0.47086,0.47086,0,0,1,.24512.13281,0.60741,0.60741,0,0,1,.18945.23633,0.76973,0.76973,0,0,1,.05664.30176V44.42924Zm-9.30859-5.292a3.43123,3.43123,0,0,0,.19434,1.167,2.75308,2.75308,0,0,0,.55273.94043,2.62078,2.62078,0,0,0,.86426.62793A2.65745,2.65745,0,0,0,71.278,42.104a2.97635,2.97635,0,0,0,1.17676-.23145,3.00772,3.00772,0,0,0,.94434-0.62793,2.85552,2.85552,0,0,0,.62891-0.94043,3.08359,3.08359,0,0,0,0-2.32031,3.06469,3.06469,0,0,0-.62891-0.96387,2.98763,2.98763,0,0,0-.94434-0.65625A2.86682,2.86682,0,0,0,71.278,36.1226a2.56136,2.56136,0,0,0-1.12012.24121,2.61748,2.61748,0,0,0-.86426.65625,2.95891,2.95891,0,0,0-.55273.96387A3.42146,3.42146,0,0,0,68.54657,39.13725Z" transform="translate(-6.70147 -9.66722)"/>
        <path class="cls-2" d="M80.85028,31.25541a0.51691,0.51691,0,0,1,.19434-0.43945,2.20283,2.20283,0,0,1,.55273-0.27832l2.14453-.74609a0.4277,0.4277,0,0,1,.08984-0.00977h0.08105a0.49543,0.49543,0,0,1,.46777.20313,1.06368,1.06368,0,0,1,.11816.53418L84.489,33.49565h1.57813a0.68268,0.68268,0,0,1,.49121.17969,0.70769,0.70769,0,0,1,.18945.53809v1.82422a0.78178,0.78178,0,0,1-.18945.58105,0.67371,0.67371,0,0,1-.49121.18457H84.489l0.00977,7.59766a0.686,0.686,0,0,1-.208.543,0.83956,0.83956,0,0,1-.57715.18457H81.57782a0.64319,0.64319,0,0,1-.72754-0.72754L80.8415,36.80326H80.15107a0.66054,0.66054,0,0,1-.72754-0.76562V34.21342a0.63865,0.63865,0,0,1,.72754-0.71777H80.8415Z" transform="translate(-6.70147 -9.66722)"/>
        <path class="cls-2" d="M100.29853,44.42924a0.85416,0.85416,0,0,1-.05664.30664,0.47,0.47,0,0,1-.18945.23145,0.4641,0.4641,0,0,1-.24512.13281,1.311,1.311,0,0,1-.24609.02832H97.69989a0.83972,0.83972,0,0,1-.32129-0.05176,0.51,0.51,0,0,1-.19922-0.14648,0.86828,0.86828,0,0,1-.127-0.23145c-0.03516-.0918-0.07129-0.19043-0.1084-0.29785l-0.27441-.709c-0.16992.16992-.35645,0.35156-0.55762,0.54395a5.156,5.156,0,0,1-.666.5332,4.0022,4.0022,0,0,1-.78906.41113,2.48183,2.48183,0,0,1-.90723.166,6.2019,6.2019,0,0,1-1.64941-.21777,6.07515,6.07515,0,0,1-2.7168-1.583,6.16349,6.16349,0,0,1-1.57812-2.74023,6.3355,6.3355,0,0,1-.21777-1.668,6.19487,6.19487,0,0,1,1.7959-4.4082,6.12121,6.12121,0,0,1,4.36621-1.791,3.20319,3.20319,0,0,1,1.07715.1748,3.68325,3.68325,0,0,1,.89258.458,4.4003,4.4003,0,0,1,.72754.64258,7.30153,7.30153,0,0,1,.582.72754l0.36816-1.14258c0.0625-.1582.11523-0.28516,0.15625-0.38281a0.68618,0.68618,0,0,1,.13184-0.21777,0.3564,0.3564,0,0,1,.1748-0.09473,1.40854,1.40854,0,0,1,.293-0.02344h1.4082a1.311,1.311,0,0,1,.24609.02832,0.47086,0.47086,0,0,1,.24512.13281,0.60741,0.60741,0,0,1,.18945.23633,0.76973,0.76973,0,0,1,.05664.30176V44.42924Zm-9.30859-5.292a3.43123,3.43123,0,0,0,.19434,1.167,2.75308,2.75308,0,0,0,.55273.94043,2.62078,2.62078,0,0,0,.86426.62793,2.65745,2.65745,0,0,0,1.12012.23145,2.97635,2.97635,0,0,0,1.17676-.23145,3.00772,3.00772,0,0,0,.94434-0.62793,2.85552,2.85552,0,0,0,.62891-0.94043,3.08359,3.08359,0,0,0,0-2.32031,3.06469,3.06469,0,0,0-.62891-0.96387,2.98763,2.98763,0,0,0-.94434-0.65625,2.86682,2.86682,0,0,0-1.17676-.24121,2.56136,2.56136,0,0,0-1.12012.24121,2.61748,2.61748,0,0,0-.86426.65625,2.95891,2.95891,0,0,0-.55273.96387A3.42146,3.42146,0,0,0,90.98993,39.13725Z" transform="translate(-6.70147 -9.66722)"/>
      </g>
      <g>
        <path class="cls-2" d="M44.88553,19.36334a4.45343,4.45343,0,0,1,.6091.06268V16.42a1.85562,1.85562,0,0,0-1.85556-1.85588H25.39659a2.82953,2.82953,0,0,1-2.82923-2.82891v-0.212a1.85553,1.85553,0,0,0-1.856-1.856H9.80367a1.85529,1.85529,0,0,0-1.85514,1.856V19.426a4.45353,4.45353,0,0,1,.60911-0.06268h36.3279Zm0,0" transform="translate(-6.70147 -9.66722)"/>
        <path class="cls-1" d="M46.23458,22.65561a1.8568,1.8568,0,0,0-1.349-.58118H8.55764a1.856,1.856,0,0,0-1.85314,1.9614l1.144,20.04681a1.856,1.856,0,0,0,1.85262,1.75014h34.041a1.856,1.856,0,0,0,1.85262-1.75014l1.14355-20.04681a1.85384,1.85384,0,0,0-.50368-1.38023h0Zm0,0" transform="translate(-6.70147 -9.66722)"/>
      </g>
    </g>
    <g>
      <g>
        <path class="cls-3" d="M33.409,41.01634a1.18941,1.18941,0,0,1-1.18935,1.18943l-4.174.02009a1.18942,1.18942,0,0,0-1.31975,1.04283H26.717a1.18947,1.18947,0,0,0-1.31979-1.04283l-4.174-.02009a1.18942,1.18942,0,0,1-1.18939-1.18943V25.77143H33.39654Z" transform="translate(-6.70147 -9.66722)"/>
        <path class="cls-3" d="M33.409,41.01634a1.18941,1.18941,0,0,1-1.18935,1.18943l-4.174.02009a1.18942,1.18942,0,0,0-1.31975,1.04283H26.717a1.18947,1.18947,0,0,0-1.31979-1.04283l-4.174-.02009a1.18942,1.18942,0,0,1-1.18939-1.18943V25.77143H33.39654Z" transform="translate(-6.70147 -9.66722)"/>
        <path class="cls-3" d="M33.409,41.01634a1.18941,1.18941,0,0,1-1.18935,1.18943l-4.174.02009a1.18942,1.18942,0,0,0-1.31975,1.04283H26.717a1.18947,1.18947,0,0,0-1.31979-1.04283l-4.174-.02009a1.18942,1.18942,0,0,1-1.18939-1.18943v-4.786l10.34859-10.4589h3.01407Z" transform="translate(-6.70147 -9.66722)"/>
        <path class="cls-3" d="M33.40106,31.23022L33.409,41.01634a1.18941,1.18941,0,0,1-1.18935,1.18943l-4.174.02009a1.18942,1.18942,0,0,0-1.31975,1.04283H26.717a1.18947,1.18947,0,0,0-1.31979-1.04283l-3.0885-.01486Z" transform="translate(-6.70147 -9.66722)"/>
      </g>
      <g>
        <g>
          <path class="cls-4" d="M33.409,41.01634a1.18941,1.18941,0,0,1-1.18935,1.18943l-4.174.02009a1.18942,1.18942,0,0,0-1.31975,1.04283H26.717a1.18947,1.18947,0,0,0-1.31979-1.04283l-4.174-.02009a1.18942,1.18942,0,0,1-1.18939-1.18943V25.77143H33.39654Z" transform="translate(-6.70147 -9.66722)"/>
          <path class="cls-4" d="M27.12547,43.71782h-0.799L26.271,43.32119a0.74335,0.74335,0,0,0-.82156-0.64944l-0.02719.00329-0.02719-.00022-4.174-.02a1.6398,1.6398,0,0,1-1.63632-1.63851v-15.694H33.84506l0.01294,15.694a1.64022,1.64022,0,0,1-1.63829,1.63851l-4.199.02017-0.02719-.00329a0.74435,0.74435,0,0,0-.82156.64922Zm-1.58874-1.9492a1.63928,1.63928,0,0,1,1.18465.5089,1.6397,1.6397,0,0,1,1.34734-.501l4.1488-.01973a0.74181,0.74181,0,0,0,.74241-0.74021L32.94786,26.2204h-12.465v14.796a0.7413,0.7413,0,0,0,.74043.74043l4.151,0.01973Q25.45615,41.76862,25.53673,41.76862Z" transform="translate(-6.70147 -9.66722)"/>
        </g>
        <path class="cls-5" d="M33.409,41.01634a1.18941,1.18941,0,0,1-1.18935,1.18943l-4.174.02009a1.18942,1.18942,0,0,0-1.31975,1.04283H26.717a1.18947,1.18947,0,0,0-1.31979-1.04283l-4.174-.02009a1.18942,1.18942,0,0,1-1.18939-1.18943V25.77143H33.39654Z" transform="translate(-6.70147 -9.66722)"/>
        <path class="cls-2" d="M33.409,41.01634a1.18941,1.18941,0,0,1-1.18935,1.18943l-4.174.02009a1.18942,1.18942,0,0,0-1.31975,1.04283H26.717a1.18947,1.18947,0,0,0-1.31979-1.04283l-4.174-.02009a1.18942,1.18942,0,0,1-1.18939-1.18943v-4.786l10.34859-10.4589h3.01407Z" transform="translate(-6.70147 -9.66722)"/>
        <path class="cls-1" d="M33.40106,31.23022L33.409,41.01634a1.18941,1.18941,0,0,1-1.18935,1.18943l-4.174.02009a1.18942,1.18942,0,0,0-1.31975,1.04283H26.717a1.18947,1.18947,0,0,0-1.31979-1.04283l-3.0885-.01486Z" transform="translate(-6.70147 -9.66722)"/>
      </g>
    </g>
  </g>
</svg>
