<?xml version="1.0" encoding="utf-8"?>
<!-- Generator: Adobe Illustrator 17.0.0, SVG Export Plug-In . SVG Version: 6.00 Build 0)  -->
<!DOCTYPE svg PUBLIC "-//W3C//DTD SVG 1.1//EN" "http://www.w3.org/Graphics/SVG/1.1/DTD/svg11.dtd">
<svg version="1.1" id="Livello_1" xmlns="http://www.w3.org/2000/svg" xmlns:xlink="http://www.w3.org/1999/xlink" x="0px" y="0px"
	 width="450px" height="307.635px" viewBox="0 0 450 307.635" enable-background="new 0 0 450 307.635" xml:space="preserve">
<g>
	<polygon fill="#D23B3B" points="264.476,118.861 228.764,83.149 193.052,118.861 165.913,146.094 166,147.555 166,188 291,188 
		291,145.762 290.824,145.177 	"/>
	<path fill="#D23B3B" d="M316.481,112.026c0,0-82.029-82.322-82.579-82.866l-0.425-0.421c-0.622-0.616-1.36-1.047-2.143-1.372
		c-2.256-1.502-5.649-1.021-8.315,1.191c-0.564,0.387-1.11,0.821-1.615,1.331L92.424,160.195c-3.617,3.655-4.077,9.065-1.027,12.084
		l0.425,0.421c3.05,3.019,8.456,2.504,12.073-1.15l114.32-114.64l-1.431,1.291c0,0,8.945-9.631,19.786-3.004l68.518,68.263
		c2.367,2.358,6.742,1.805,9.771-1.235l0.422-0.423C318.311,118.761,318.848,114.385,316.481,112.026z"/>
</g>
<rect x="16.768" y="212.474" fill="none" width="416.464" height="84.05"/>
<text transform="matrix(1 0 0 1 74.7123 241.202)"><tspan x="0" y="0" fill="#4C4C4C" font-family="'AvenirNext-Regular'" font-size="38">RICOSTRUZIONE</tspan><tspan x="-9.841" y="45.6" fill="#4C4C4C" font-family="'AvenirNext-Regular'" font-size="38">POST-SISMA 2016</tspan></text>
</svg>
